# xmcd CD database file
#
# Track frame offsets:
#	150
#	18228
#	35668
#	53081
#	73198
#	95064
#	119188
#	137583
#	154331
#	172941
#	192281
#	212463
#	228046
#	248833
#
# Disc length: 3491 seconds
#
# Revision: 2
# Processed by: cddbd v1.5.2PL0 Copyright (c) Steve Scherf et al.
# Submitted via: jetAudio 5
#
DISCID=c10da10e
DTITLE=gcc - cc
DYEAR=2000
DGENRE=ccc
TTITLE0=ititit
TTITLE1=klhlh
TTITLE2=hlhl
TTITLE3=hlhltrt
TTITLE4=itititi
TTITLE5=itititi
TTITLE6=ototoy[y
TTITLE7=uwuwuwu
TTITLE8=ieueuei
TTITLE9=eueieie
TTITLE10=euueu
TTITLE11=euweie
TTITLE12=ieiieri
TTITLE13=ieiei6
EXTD=1223
EXTT0=
EXTT1=
EXTT2=
EXTT3=
EXTT4=
EXTT5=
EXTT6=
EXTT7=
EXTT8=
EXTT9=
EXTT10=
EXTT11=
EXTT12=
EXTT13=
PLAYORDER=
